<?xml version="1.0" encoding="utf-8"?>
<!-- Generator: Adobe Illustrator 22.0.1, SVG Export Plug-In . SVG Version: 6.00 Build 0)  -->
<svg version="1.1" id="Layer_1" xmlns="http://www.w3.org/2000/svg" xmlns:xlink="http://www.w3.org/1999/xlink" x="0px" y="0px"
	 viewBox="0 0 24 24" style="enable-background:new 0 0 24 24;" xml:space="preserve">
<style type="text/css">
	.st0{fill:none;}
	.st1{display:none;}
	.st2{stroke:#000000;stroke-width:1.2;stroke-miterlimit:10;}
</style>
<path class="st0" d="M0,0h24v24H0V0z M18.3,6l-2.8,5L18.3,6z"/>
<polygon class="st1" points="16,4 16,6 13,6 13,9 11,9 11,6 8,6 8,4 11,4 11,1 13,1 13,4 "/>
<path d="M7,18c-1.1,0-2,0.9-2,2s0.9,2,2,2s2-0.9,2-2S8.1,18,7,18z"/>
<path d="M7.4,15H19v2H7c-1.1,0-2-0.9-2-2c0-0.3,0.1-0.7,0.3-1l1.3-2.4L3,4H1V2h3.3l0.9,2l0.9,2l2.2,4.7L8.5,11h7l2.8-5l1.1-2h0
	l1.7,1l-3.9,7c-0.3,0.6-1,1-1.8,1H8.1l-0.9,1.6l0,0.1C7.2,14.9,7.3,15,7.4,15z"/>
<path d="M17,18c-1.1,0-2,0.9-2,2s0.9,2,2,2s2-0.9,2-2S18.1,18,17,18z"/>
<path class="st2" d="M11.5,7.7L9.6,5.9L9,6.5L11.5,9l5.3-5.3L16.2,3L11.5,7.7z"/>
</svg>
