<?xml version="1.0" encoding="utf-8"?>
<!-- Generator: Adobe Illustrator 22.0.1, SVG Export Plug-In . SVG Version: 6.00 Build 0)  -->
<svg version="1.1" id="Layer_1" xmlns="http://www.w3.org/2000/svg" xmlns:xlink="http://www.w3.org/1999/xlink" x="0px" y="0px"
	 viewBox="0 0 82.5 57.5" style="enable-background:new 0 0 82.5 57.5;" xml:space="preserve">
<style type="text/css">
	.st0{fill:#141414;}
</style>
<g>
	<g>
		<path class="st0" d="M21.3,1.5c1.3,0,2.6,0.5,3.7,1.5c0.5,0.6,0.8,1.2,0.8,1.8c0,0.1,0,0.3-0.1,0.8c-0.4,4.3-0.6,7.5-0.6,9.5
			c0,2,0.2,3,0.6,3c0.5,0,1.5-1.2,3-3.6c1.3-2.1,3.2-5.5,5.8-10.1c0.6-1.1,1.2-2,1.6-2.7c0.1-0.1,0.3-0.2,0.5-0.2
			c0.6,0,1.4,0.4,2.4,1.2c0.3,0.3,0.5,0.7,0.5,1c0,0.6-0.6,2.3-1.8,5.2c-1.4,3.3-2.5,6.1-3.3,8.3c-1.1,3.2-1.7,6.2-1.7,8.8
			c0,0.3,0,0.9,0.1,1.7c0,0,0,0,0,0c0,0-0.1,0-0.2,0c-1.5,0-2.7-0.5-3.7-1.6c-0.5-0.6-0.7-1.2-0.6-1.8C28,24,28.7,22,30,18.6
			l1.9-5.7L30.8,15h0c-1.4,2.4-2.8,4.5-4.2,6.5c-0.5,0.7-1.1,1.4-1.8,2.2c-0.4,0.4-0.7,0.5-0.8,0.5l-0.2,0c-0.9,0-1.5-0.9-1.7-2.7
			c-0.2-1.8-0.2-3.8,0.1-6c-1.7,5.8-3.1,9.7-4.1,11.6c-0.2,0.5-0.4,0.7-0.7,0.7h-0.1c-0.6,0-1.4-0.4-2.4-1.2c-0.3-0.3-0.4-0.6-0.4-1
			c1.6-3,3.1-6.8,4.6-11.5s2.2-8.3,2.2-10.8c0-0.7,0-1.3-0.1-1.7C21.1,1.5,21.2,1.5,21.3,1.5z"/>
		<path class="st0" d="M45.4,3.5c-0.9-0.8-1.6-1.1-2.1-1.1h0c-0.3,0-0.5,0.2-0.7,0.5c-0.5,1.2-0.8,1.8-0.8,1.9
			c0,0.4,0.3,0.8,0.9,1.2c1,0.5,1.6,0.7,1.8,0.7c0.3,0,0.5-0.1,0.7-0.4c0.4-0.9,0.6-1.5,0.6-2v0C45.8,4.1,45.6,3.8,45.4,3.5z"/>
		<path class="st0" d="M71.9,11.2c-0.1,0-0.2,0-0.2,0.1c-0.2,0.1-0.6,0.7-1.2,1.8c-0.9,1.4-2.1,3.2-3.8,5.3c-0.8,1.1-1.7,2.1-2.6,3
			c-0.5,0.6-1,0.9-1.5,0.9c-0.5,0-0.9-0.2-1.4-0.4c-0.9-0.7-1.4-1.3-1.4-1.8V20c0.7-0.4,1.3-0.7,1.8-1c0.8-0.4,1.7-1.1,2.7-2
			c0.8-0.8,1.3-1.5,1.5-1.9c0.8-1.4,1.3-2.6,1.3-3.6v-0.1c0-1-0.3-1.8-0.8-2.4c-0.6-0.5-1.1-0.7-1.7-0.7c-1.8,0-4.3,2.2-7.4,6.7
			l2.7-6.7c0.9-2,1.3-3.3,1.3-3.8V4.3c0-0.3-0.1-0.6-0.4-0.9c-0.9-0.7-1.5-1-2-1c-0.3,0-0.4,0.1-0.5,0.3c-0.4,0.7-0.8,1.8-1.4,3.3
			c-0.6,1.7-1.7,4.4-3.1,8.4c-0.8,1.2-1.8,2.6-3.1,4.2c-2.2,2.6-3.5,4-3.9,4c-0.1,0-0.1-0.1-0.1-0.2v-0.1c0.3-1.3,0.7-2.5,1.2-3.6
			c0.9-2.4,2.3-5.8,4.1-10.2c0.9-2.2,1.4-3.5,1.4-4V4.3c0-0.3-0.1-0.6-0.4-0.9c-0.8-0.7-1.5-1-2.1-1c-0.2,0-0.4,0.1-0.5,0.3
			c-0.4,0.7-0.8,1.8-1.4,3.3c-0.6,1.6-1.7,4.6-3.3,8.9c-0.8,1.1-1.8,2.5-3,4c-1.8,2.2-3,3.4-3.5,3.5c-0.1,0-0.2-0.1-0.2-0.2
			c0-0.1,0.1-0.5,0.3-1.4c0.6-1.9,1.5-4.3,2.7-7c1.1-2.5,1.6-4,1.6-4.4c0-0.3-0.1-0.6-0.4-0.8c-0.9-0.7-1.6-1.1-2.1-1.1
			c-0.2,0-0.3,0-0.4,0.1c-0.1,0-0.3,0.3-0.5,0.8c-1,2.2-2.1,5.3-3.4,9.3c-0.9,2.4-1.3,4-1.3,4.6c0,0.5,0.1,1.1,0.4,1.6
			c0.6,1.1,1.4,1.6,2.6,1.6c1.2,0,2.9-1.7,5.2-5c0,0,0,0,0,0c-0.4,1-0.6,1.6-0.6,1.9v0.2c0,0.4,0.1,0.8,0.4,1.3
			c0.7,1,1.5,1.5,2.5,1.5H46c1.3,0,3.2-1.8,5.6-5.5c-0.1,0.2-0.1,0.4-0.2,0.6c-0.4,1-0.6,1.6-0.6,2c0,0.6,0.2,1.1,0.6,1.7
			c0.7,0.8,1.5,1.3,2.4,1.3h0.3l0,0c0-0.1,0-0.2,0-0.4c0-1.1,0.3-2.3,0.8-3.4c0.3-0.8,0.7-1.5,1.2-2.2c0,0.1,0.1,0.3,0.3,0.9
			c0.4,0.9,1,1.7,1.5,2.5c1.4,1.7,2.7,2.6,4,2.6h0.3c1.3,0,3.5-2.2,6.3-6.7c2.4-3.9,3.6-6.3,3.6-7.2C72.1,11.3,72,11.2,71.9,11.2z
			 M56.5,18.9L56.5,18.9c0.5-0.9,1.5-2.2,2.8-3.7c1.5-1.6,2.6-2.5,3.1-2.5c0.2,0,0.3,0.1,0.3,0.4c0,0.5-0.2,1.1-0.7,2
			c-0.2,0.4-0.7,1-1.4,1.7C59.4,17.8,58,18.5,56.5,18.9z"/>
	</g>
</g>
<g>
	<g>
		<path class="st0" d="M50.6,28.7c-0.1,0-0.2,0.1-0.3,0.3c-0.1,0.3-0.3,0.6-0.6,0.9c-0.3,0.4-0.5,0.7-0.9,1.2
			c-0.7,0.8-1.1,1.2-1.2,1.2c0,0,0,0,0-0.1c0-0.1,0.1-0.3,0.3-0.9c0.4-1,0.8-2.1,1.4-3.5c0.3-0.7,0.5-1.2,0.5-1.3
			c0-0.1-0.1-0.2-0.2-0.3c-0.3-0.2-0.5-0.3-0.6-0.3h0c-0.1,0-0.1,0.1-0.2,0.2c-0.3,0.6-0.6,1.4-0.9,2.3h0c-0.1-0.2-0.2-0.3-0.4-0.5
			c-0.3-0.3-0.6-0.4-0.9-0.4h-0.1c-0.3,0-0.6,0.2-1,0.5c-0.2,0.2-0.4,0.4-0.5,0.6c-0.2,0.3-0.3,0.6-0.5,1c-0.1,0.2-0.2,0.5-0.2,0.7
			c-0.2,0.2-0.3,0.5-0.5,0.7c-0.7,0.8-1.1,1.3-1.3,1.3h0c0,0,0,0,0,0c0,0,0-0.2,0.1-0.5c0.2-0.7,0.6-1.5,1-2.5
			c0.2-0.6,0.4-0.9,0.4-1v0c0-0.1-0.1-0.2-0.2-0.3c-0.3-0.2-0.5-0.3-0.7-0.3c-0.6,0-1.3,0.7-2.3,2.1c0.4-0.8,0.5-1.3,0.5-1.5
			c0-0.1,0-0.2-0.1-0.3c-0.3-0.2-0.5-0.4-0.7-0.4c0,0,0,0,0,0c-0.1,0-0.1,0.1-0.2,0.3c-0.2,0.5-0.5,1.3-0.9,2.4
			c-0.2,0.3-0.4,0.6-0.7,0.9c-0.7,0.8-1.1,1.2-1.2,1.2h0c0,0,0,0,0,0v0c0-0.1,0.1-0.2,0.1-0.4c0.2-0.7,0.5-1.4,0.9-2.2
			c0.4-0.8,0.5-1.3,0.5-1.4v0c0-0.1,0-0.2-0.2-0.3c-0.3-0.2-0.5-0.3-0.6-0.3h0c-0.1,0-0.1,0-0.2,0.2c0,0.1-0.1,0.3-0.3,0.8
			c-0.1-0.1-0.2-0.2-0.2-0.3c-0.4-0.4-0.7-0.6-1.1-0.6h-0.1c-0.4,0-0.8,0.3-1.2,0.9c-0.3,0.4-0.5,0.8-0.6,1.2
			c-0.4,1.2-0.7,2-0.7,2.6v0c0,0.2,0,0.3,0.1,0.5c0.2,0.4,0.5,0.6,0.9,0.6h0.1c0.3,0,0.6-0.1,0.9-0.4c0.3-0.3,0.4-0.5,0.6-0.6l0,0.1
			c0,0.2,0.1,0.3,0.2,0.5c0.2,0.3,0.5,0.4,0.8,0.4h0c0,0,0,0,0,0c0,0,0,0,0,0h0c0.3,0,0.7-0.3,1.2-1c0.1-0.2,0.2-0.3,0.3-0.5
			c0,0.2-0.1,0.3-0.1,0.4c0,0.1,0,0.2,0,0.3c0.2,0.5,0.5,0.7,0.9,0.7c0,0,0,0,0,0v-0.2c0-0.1,0-0.3,0.1-0.4c0-0.1,0.1-0.3,0.3-0.7
			c0.3-0.5,0.7-1.2,1.3-1.9c0.5-0.6,0.8-0.9,0.9-0.9c0,0,0,0,0,0.1c0,0,0,0.1,0,0.1c0,0.1-0.3,0.9-0.8,2.4c-0.1,0.3-0.2,0.5-0.2,0.6
			c0,0.2,0.1,0.4,0.2,0.5c0.2,0.3,0.5,0.4,0.8,0.4h0.1c0.4,0,0.9-0.5,1.6-1.5c0,0.2,0,0.3,0,0.4c0,0.2,0,0.4,0.1,0.5
			c0.2,0.4,0.5,0.6,0.9,0.6H45c0,0,0.1,0,0.2,0c0.2,0,0.4-0.2,0.7-0.4c0.3-0.3,0.5-0.5,0.5-0.6h0v0c0,0,0,0.1,0,0.1v0
			c0,0.2,0.1,0.3,0.1,0.5c0.2,0.3,0.5,0.5,0.8,0.5c0.3,0,0.6-0.2,1-0.7c0.4-0.5,0.8-1,1.1-1.5c0.8-1.3,1.1-2,1.1-2.3
			C50.7,28.8,50.7,28.7,50.6,28.7z M37.3,28.9c0,0.5-0.3,1.1-0.8,1.9c-0.2,0.3-0.4,0.5-0.6,0.8c-0.2,0.2-0.3,0.3-0.4,0.3l0,0
			c-0.1,0-0.1-0.1-0.1-0.3c0-0.1,0-0.1,0-0.2c0-0.1,0.1-0.4,0.2-0.9c0.2-0.6,0.5-1.1,0.7-1.5c0.3-0.4,0.5-0.6,0.7-0.6h0.1
			C37.2,28.5,37.3,28.7,37.3,28.9L37.3,28.9z M46.8,30.7c-0.2,0.3-0.5,0.6-0.8,0.9c-0.2,0.2-0.3,0.3-0.4,0.3c0,0,0,0,0,0
			c-0.1,0-0.1-0.1-0.1-0.3v0c0-0.1,0.1-0.5,0.2-0.9c0.2-0.6,0.4-1.1,0.7-1.5c0.3-0.5,0.6-0.8,0.8-0.8h0c0,0,0.1,0,0.1,0
			c0.1,0.1,0.2,0.2,0.2,0.4C47.4,29.4,47.2,30,46.8,30.7z"/>
	</g>
</g>
<g>
	<g>
		<path class="st0" d="M23.3,35.3c0-1.2-0.5-2.5-1.5-3.8c-1.8-1.9-4.1-2.9-7.1-2.9h-0.4c-2.3,0-4.8,0.6-7.3,1.8
			c-0.7,0.3-1.6,0.8-2.5,1.5c-1,0.7-1.8,1.5-2.4,2.3c-0.7,1-1.1,1.9-1.1,2.6c0,0.5,0.2,1,0.7,1.4c0.8,0.6,1.4,1,2,1h0.1
			c0.3,0,0.4-0.1,0.5-0.3c0-0.2,0.2-0.6,0.5-1.2c0.2-0.5,0.7-1.1,1.5-2c0.8-0.8,1.6-1.3,2.2-1.6c2.5-1.4,4.8-2,7.1-2
			c0.6,0,1.1,0,1.6,0.2c1.6,0.4,2.4,1.1,2.4,2.2v0c0,1.1-0.8,2.7-2.6,4.5c-1.7,1.9-3.9,3.2-6.5,4.1c0.7-1.7,1.4-3.1,2-4.3
			c0.9-1.5,1.3-2.5,1.3-2.7v0c0-0.2-0.1-0.5-0.4-0.7c-0.9-0.8-1.8-1.1-2.5-1.1c-0.1,0-0.3,0-0.4,0.1c-0.2,0-0.5,0.4-0.8,1
			c-0.8,1.5-1.6,3-2.2,4.6c-1.7,4.5-2.6,8.6-2.6,12.5v0.5H4.8c-0.2,0-0.5,0-0.9,0.2c-0.4,0-0.5,0.2-0.5,0.5v0.2c0,0.1,0,0.1,0,0.2
			c0.2,0.8,0.5,1.3,0.9,1.7C4.5,55.8,5.2,56,6.2,56c1.4,0,3.1-0.3,5-0.9c1.1-0.4,1.9-0.7,2.5-1c0.6-0.3,1.2-0.7,2-1.3
			c2-1.5,3-3.4,3-5.4c0-1.8-0.8-3-2.5-3.7c-0.4-0.1-0.6-0.2-0.6-0.2c1.2-0.6,2.5-1.3,3.8-2.2c2.7-2,4-3.9,4-5.8V35.3z M14.4,47.2
			c0,0.8-0.5,1.6-1.6,2.5c-0.8,0.6-1.6,1.2-2.4,1.5C9.7,51.7,8.9,52,8,52.2c0.2-2,0.4-3.4,0.6-4.2c0.2-0.9,0.6-1.8,1-2.8
			c0.5-0.1,1-0.2,1.5-0.2h0c0.7,0,1.3,0.1,1.9,0.4C14,45.9,14.4,46.5,14.4,47.2L14.4,47.2z"/>
		<path class="st0" d="M81,39c-0.3,0-0.5,0.3-0.8,0.8c-0.5,0.9-1.1,1.9-1.8,2.9c-0.8,1.1-1.6,2.3-2.7,3.6c-2.1,2.6-3.4,3.9-3.8,3.9
			h0c-0.1,0-0.2-0.1-0.2-0.2c0-0.2,0.3-1.1,0.8-2.7c1.2-3,2.6-6.7,4.4-11.1c1-2.3,1.5-3.6,1.5-4.1c0-0.4-0.2-0.7-0.6-1.1
			c-0.8-0.6-1.4-0.9-1.9-0.9h-0.2c-0.2,0-0.4,0.2-0.6,0.6c-0.9,2-1.8,4.4-2.9,7.3h0c-0.3-0.5-0.7-1-1.2-1.5c-1-0.9-1.9-1.3-2.8-1.3
			h-0.2c-1,0-2,0.5-3,1.6c-0.6,0.7-1.1,1.4-1.5,2c-0.5,0.9-1,1.9-1.5,3c-0.3,0.8-0.6,1.6-0.8,2.3c-0.5,0.7-1.1,1.4-1.7,2.2
			c-2.1,2.6-3.4,3.9-3.8,3.9h-0.1c-0.1,0-0.1-0.1-0.1-0.2V50c0.1-0.3,0.2-0.8,0.4-1.3c0.7-2.2,1.6-4.5,2.7-6.9
			c1.1-2.5,1.6-4,1.6-4.5v-0.1c0-0.3-0.2-0.6-0.5-0.9c-0.8-0.7-1.5-1-1.9-1h-0.2c-0.2,0-0.4,0.2-0.6,0.5c-0.2,0.2-0.4,1-0.9,2.4
			c-0.3-0.4-0.5-0.7-0.7-1c-1.1-1.3-2.2-1.9-3.3-1.9h-0.2c-1.3,0-2.5,0.9-3.9,2.7c-0.8,1.1-1.5,2.4-2,3.7c-0.2,0.6-0.4,1.1-0.6,1.6
			c0,0.1-0.1,0.1-0.1,0.2c-0.8,1.1-1.8,2.4-3.1,3.8c-2.1,2.2-3.8,3.3-5,3.3h-0.2c-0.2,0-0.3,0-0.6-0.1c-0.6-0.2-0.9-0.8-0.9-1.7
			c0-0.8,0.2-1.8,0.6-3.1h0c0.6,0.6,1.4,0.9,2.1,0.9h0.2c0.7,0,1.4-0.2,2.2-0.7c0.4-0.2,0.8-0.6,1.2-1.2c1.3-1.8,2-3.5,2-5v-0.2
			c0-0.5-0.1-0.9-0.2-1.3c-0.2-0.7-0.5-1.2-1-1.5c-1.2-0.8-2.4-1.2-3.6-1.2c-0.7,0-1.3,0.2-1.8,0.5c-0.3,0.1-0.8,0.6-1.5,1.3
			c-0.7,0.8-1.2,1.5-1.5,2.2c-0.8,1.3-1.4,3-2.1,4.9c-0.1,0.4-0.3,0.8-0.4,1.2c-0.1,0.2-0.3,0.4-0.4,0.6c-2.2,2.7-3.6,4.1-4,4.1
			c-0.1-0.1-0.1-0.5,0.2-1l2.4-5.9c0.8-1.9,1.3-3.1,1.3-3.4s-0.1-0.7-0.4-1.1c-0.3-0.4-0.8-0.6-1.6-0.6c-0.5,0-1.2,0.2-2,0.5
			s-1.2,0.4-1.3,0.2c0-0.1,0.1-0.5,0.4-1.1c0.9-1.8,0.6-3-1.1-3.6c-0.8-0.3-1.3-0.2-1.5,0.2c-0.2,0.5-0.6,1.4-1.1,2.8
			c-0.4,0.9-0.5,1.5-0.5,1.9c0,0.3,0.1,0.7,0.3,1c0.5,0.7,1.1,1.1,1.9,1.1h0.2c0.3,0,0.6-0.1,0.9-0.2c0.8-0.5,1.3-0.8,1.6-0.8
			c0.1,0,0.1,0,0.1,0.1c0,0.1-1,2.8-3,8.1c-0.3,0.9-0.5,1.5-0.5,1.9c0,0.5,0.1,1,0.4,1.5c0.6,1,1.5,1.5,2.7,1.5s2.7-1.3,4.6-4.1
			c0,0.5,0.2,0.9,0.3,1.4c0.4,1.1,1,1.8,2,2.3c0.5,0.3,1.1,0.4,1.9,0.4h0.2c1.7,0,3.3-0.6,4.9-1.8c0.7-0.6,1.6-1.4,2.5-2.5
			c0.4-0.4,0.7-0.9,1-1.3c-0.1,0.8-0.2,1.4-0.2,2v0c0,0.5,0.1,1.1,0.2,1.6c0.5,1.3,1.5,2,2.9,2h0.3c0.9,0,1.8-0.4,2.7-1.3
			c0.8-0.8,1.3-1.4,1.7-2l0,0.3c0,0.5,0.2,1.1,0.6,1.6c0.7,0.8,1.4,1.3,2.4,1.3h0.1c0,0,0,0,0.1,0c0,0,0,0,0.1,0h0.1
			c0.9,0,2.1-1,3.7-3c0.4-0.6,0.9-1.2,1.3-1.8c-0.1,0.4-0.1,0.8-0.1,1.1c0,0.6,0.1,1.1,0.2,1.7c0.5,1.3,1.4,2,2.9,2h0.3
			c0.2,0,0.4,0,0.6,0c0.5-0.1,1.3-0.5,2.2-1.2c0.9-0.9,1.5-1.6,1.7-2h0v0c0,0.1,0,0.2,0,0.3v0c0,0.5,0.1,1,0.4,1.5
			c0.6,1,1.5,1.4,2.6,1.4c0.8,0,1.9-0.7,3.2-2.2c1.3-1.6,2.4-3.1,3.3-4.6c2.4-3.9,3.6-6.3,3.6-7.2C81.2,39.1,81.1,39,81,39z
			 M37.4,43.1c1.7-3.7,2.9-5.5,3.8-5.5h0c0.3,0,0.4,0.2,0.4,0.7v0.2c0,0.6-0.2,1.3-0.5,2.3c-0.3,0.7-0.5,1.3-0.8,1.7
			c-1,1.5-1.8,2.3-2.6,2.3h0c-0.3,0-0.6-0.1-0.9-0.4C37,44.1,37.2,43.7,37.4,43.1z M55.1,39.6c0,1.5-0.8,3.5-2.5,6
			c-0.6,0.8-1.2,1.6-2,2.4c-0.6,0.7-1.1,1-1.3,1l-0.2,0c-0.2-0.1-0.3-0.4-0.3-0.8c0-0.3,0.1-0.5,0.1-0.5c0-0.3,0.3-1.2,0.7-2.7
			c0.7-1.8,1.4-3.4,2.2-4.8c0.9-1.4,1.6-2.1,2.2-2.1h0.1c0.1,0,0.1,0,0.2,0c0.5,0.3,0.8,0.7,0.8,1.3V39.6z M68.9,45.1
			c-0.6,0.9-1.4,1.9-2.4,3c-0.6,0.7-1.1,1-1.4,1c0,0,0,0,0,0c-0.2,0-0.3-0.3-0.4-0.8v-0.1c0-0.4,0.2-1.4,0.7-2.9
			c0.7-1.8,1.4-3.4,2.1-4.6c1-1.7,1.8-2.5,2.5-2.5h0.1c0.1,0,0.2,0,0.3,0c0.5,0.2,0.7,0.7,0.7,1.4C71.1,41,70.4,42.9,68.9,45.1z"/>
	</g>
</g>
</svg>
